<?xml version="1.0" encoding="UTF-8" standalone="no"?>
<!DOCTYPE svg PUBLIC "-//W3C//DTD SVG 1.1//EN" "http://www.w3.org/Graphics/SVG/1.1/DTD/svg11.dtd">
<svg width="100%" height="100%" viewBox="0 0 881 1280" version="1.1" xmlns="http://www.w3.org/2000/svg" xmlns:xlink="http://www.w3.org/1999/xlink" xml:space="preserve" xmlns:serif="http://www.serif.com/" style="fill-rule:evenodd;clip-rule:evenodd;stroke-linejoin:round;stroke-miterlimit:2;">
    <g transform="matrix(0.1,0,0,-0.1,0,1280)">
        <path d="M3463,12771C3448,12752 3440,12728 3440,12702C3440,12670 3436,12661 3419,12657C3405,12653 3400,12646 3404,12633C3407,12623 3412,12602 3416,12586C3423,12558 3423,12558 3383,12564C3353,12570 3340,12567 3330,12555C3319,12541 3321,12531 3344,12488C3372,12437 3372,12410 3346,12410C3337,12410 3326,12401 3320,12390C3312,12374 3315,12359 3334,12318C3366,12251 3356,12237 3296,12269C3216,12313 3206,12261 3274,12155C3335,12061 3355,12022 3347,12014C3344,12010 3304,12028 3258,12054C3213,12080 3167,12100 3155,12098C3138,12095 3135,12089 3137,12048C3140,12000 3170,11936 3195,11926C3203,11923 3210,11914 3210,11905C3210,11897 3227,11873 3248,11851C3268,11830 3293,11798 3303,11781C3319,11753 3319,11750 3305,11750C3296,11750 3271,11759 3249,11770C3227,11782 3205,11788 3200,11785C3195,11782 3173,11789 3151,11801C3107,11824 3061,11821 3039,11794C3029,11782 3031,11774 3049,11752C3061,11737 3075,11713 3081,11698C3087,11682 3095,11670 3099,11670C3103,11670 3124,11651 3146,11628C3167,11606 3201,11571 3221,11551C3263,11510 3295,11462 3287,11454C3284,11451 3268,11456 3250,11465C3233,11474 3210,11478 3199,11475C3185,11470 3166,11477 3140,11495C3111,11515 3092,11521 3069,11518C3051,11515 3019,11520 2998,11528C2941,11550 2910,11534 2910,11481C2910,11449 2916,11438 2945,11416C2978,11390 2992,11360 2970,11360C2946,11360 2963,11337 3008,11310C3085,11263 3100,11250 3100,11232C3100,11222 3129,11196 3167,11170C3203,11146 3246,11108 3262,11085L3292,11045L3262,11042C3243,11040 3206,11052 3161,11074C3122,11094 3076,11110 3059,11110C3038,11110 3016,11120 2993,11140C2956,11173 2943,11176 2907,11159C2887,11150 2875,11152 2840,11170C2804,11188 2789,11190 2734,11185C2686,11179 2669,11173 2665,11160C2656,11133 2669,11113 2707,11090C2740,11071 2741,11068 2727,11052C2708,11031 2713,11023 2763,10985C2797,10960 2800,10955 2786,10944C2777,10938 2770,10928 2770,10923C2770,10917 2807,10896 2853,10875C2898,10854 2998,10796 3075,10745C3183,10674 3225,10640 3257,10597C3309,10529 3321,10490 3292,10490C3260,10490 3202,10518 3190,10539C3185,10550 3180,10568 3180,10578C3180,10619 3059,10696 3010,10685C2985,10679 2978,10685 2935,10746L2887,10812L2844,10807C2806,10803 2794,10807 2762,10832C2729,10859 2720,10861 2675,10856C2635,10851 2608,10856 2540,10879C2486,10898 2451,10905 2444,10899C2426,10885 2439,10845 2471,10814C2487,10799 2500,10777 2500,10765C2500,10754 2509,10737 2520,10727C2544,10707 2546,10692 2526,10684C2486,10669 2501,10623 2557,10590L2594,10568L2570,10549C2546,10530 2545,10529 2564,10515C2575,10507 2623,10480 2672,10455C2730,10424 2760,10403 2760,10392C2760,10382 2781,10364 2816,10346C2938,10282 3072,10198 3112,10159C3136,10136 3165,10111 3176,10103C3206,10084 3238,9993 3254,9885C3267,9792 3266,9770 3246,9770C3234,9771 3166,9977 3155,10045C3145,10112 3140,10120 3098,10141C3062,10160 3057,10160 3035,10146C3000,10123 2983,10126 2977,10158C2973,10180 2960,10191 2920,10210C2874,10231 2866,10232 2834,10221C2800,10209 2797,10209 2772,10238C2757,10254 2722,10284 2694,10304C2643,10340 2607,10349 2595,10330C2584,10312 2549,10319 2517,10346C2490,10369 2481,10371 2435,10365C2391,10360 2381,10362 2365,10380C2342,10405 2294,10407 2281,10382C2272,10365 2264,10365 2173,10375C2119,10381 2067,10384 2058,10382C2029,10376 2037,10342 2070,10325C2086,10316 2100,10303 2100,10295C2100,10288 2113,10272 2130,10260C2165,10235 2169,10220 2140,10220C2129,10220 2117,10213 2113,10203C2106,10186 2124,10168 2179,10138C2207,10122 2209,10118 2198,10100C2179,10071 2198,10048 2253,10031C2290,10020 2299,10013 2295,10000C2291,9987 2307,9972 2362,9940C2481,9870 2494,9850 2420,9850C2390,9850 2377,9844 2360,9823L2338,9795L2317,9822C2305,9837 2285,9863 2272,9880C2246,9913 2201,9921 2180,9895C2162,9873 2132,9877 2098,9905C2066,9932 2044,9936 2006,9919C1987,9910 1977,9911 1959,9924C1942,9936 1913,9940 1849,9940C1759,9940 1732,9929 1750,9900C1757,9889 1753,9880 1737,9867L1715,9850L1743,9829C1774,9805 1778,9790 1751,9790C1741,9790 1726,9783 1719,9774C1708,9760 1709,9756 1725,9744C1735,9736 1747,9730 1752,9730C1769,9730 1759,9704 1738,9695C1695,9676 1710,9648 1775,9622C1808,9609 1837,9596 1839,9594C1849,9584 1814,9560 1790,9560C1775,9560 1752,9552 1739,9541C1699,9509 1717,9498 1900,9435C1973,9411 1990,9386 1940,9375C1908,9368 1887,9341 1898,9323C1902,9318 1934,9310 1968,9306C2003,9302 2070,9288 2116,9274C2162,9261 2215,9250 2233,9250C2303,9250 2310,9207 2242,9195C2220,9192 2194,9180 2184,9169C2161,9144 2142,9145 2119,9173C2094,9206 1988,9252 1947,9248C1923,9246 1914,9240 1912,9223C1907,9189 1879,9195 1824,9240C1769,9285 1731,9291 1702,9259C1681,9237 1667,9235 1603,9246C1570,9251 1554,9248 1527,9231C1499,9214 1477,9210 1411,9210C1320,9210 1311,9205 1262,9124L1238,9086L1261,9070C1275,9058 1279,9051 1271,9046C1265,9042 1260,9034 1260,9029C1260,9018 1266,9016 1328,9000C1389,8984 1385,8971 1318,8956C1302,8952 1290,8943 1290,8935C1290,8910 1332,8893 1428,8879C1478,8872 1520,8863 1520,8860C1520,8857 1490,8844 1453,8832C1372,8806 1329,8777 1346,8760C1353,8753 1393,8746 1436,8743C1480,8741 1570,8735 1637,8731C1705,8727 1763,8721 1766,8717C1771,8712 1744,8703 1667,8686C1652,8682 1636,8672 1633,8664C1621,8633 1656,8617 1747,8609C1795,8605 1869,8594 1910,8586C1951,8577 2012,8570 2045,8569C2155,8567 2176,8550 2088,8535C2039,8527 2039,8504 2088,8491C2108,8485 2213,8467 2320,8450C2633,8400 2813,8356 2945,8298C3084,8236 3105,8212 3133,8081C3155,7981 3176,7472 3160,7456C3143,7439 3086,7506 3067,7562C3046,7631 3015,7841 3018,7903C3022,7987 2917,8180 2876,8164C2866,8160 2838,8182 2793,8229C2727,8298 2724,8299 2689,8291C2669,8286 2643,8273 2631,8261C2620,8250 2603,8240 2594,8240C2577,8240 2578,8230 2596,8158C2601,8134 2599,8130 2580,8130C2559,8130 2558,8127 2563,8073C2566,8041 2573,7996 2578,7972C2590,7916 2576,7908 2540,7951C2514,7983 2500,8032 2473,8185C2465,8232 2447,8253 2365,8309C2275,8370 2247,8373 2242,8322C2239,8293 2235,8289 2218,8293C2202,8297 2195,8292 2187,8269C2181,8253 2170,8240 2162,8240C2146,8240 2120,8299 2120,8335C2120,8356 2115,8360 2090,8360C2070,8360 2060,8365 2060,8375C2060,8399 2018,8430 1987,8430C1966,8430 1947,8441 1923,8465C1882,8507 1858,8509 1841,8473C1833,8457 1824,8438 1820,8430C1816,8422 1796,8414 1776,8412C1743,8409 1732,8415 1691,8453C1664,8479 1629,8501 1609,8505C1590,8509 1570,8517 1563,8522C1557,8527 1532,8530 1508,8528C1473,8526 1463,8520 1453,8499C1427,8444 1387,8440 1360,8490C1354,8501 1343,8510 1336,8510C1329,8510 1301,8521 1274,8535C1193,8576 1140,8566 1140,8509C1140,8494 1136,8479 1132,8476C1127,8473 1097,8485 1064,8501C998,8535 960,8534 927,8499C911,8482 901,8480 854,8486C813,8491 794,8489 775,8476C762,8467 737,8460 721,8460C704,8460 676,8454 658,8446C640,8438 603,8428 576,8423L526,8415L524,8368C523,8329 526,8321 543,8316C560,8312 561,8309 550,8295C531,8272 554,8258 597,8266C634,8273 680,8264 680,8251C680,8246 664,8232 643,8220C610,8201 608,8198 623,8183C639,8167 675,8163 808,8161C836,8160 860,8156 860,8152C860,8147 824,8133 780,8121C697,8096 680,8086 699,8067C712,8054 870,8037 963,8039C1035,8041 1078,8033 1064,8021C1059,8017 1035,8006 1010,7997C985,7988 953,7976 938,7971C866,7944 976,7899 1130,7892C1182,7889 1316,7887 1428,7887C1539,7887 1627,7884 1623,7880C1604,7864 1503,7840 1456,7840C1416,7840 1396,7834 1370,7815C1329,7785 1287,7783 1253,7810C1239,7821 1219,7830 1210,7830C1176,7830 1119,7799 1108,7775C1094,7743 1085,7744 1045,7778C994,7820 925,7860 902,7860C878,7860 854,7839 845,7810C836,7781 804,7786 778,7820C751,7857 704,7861 677,7829C664,7814 654,7811 637,7817C601,7830 552,7825 532,7807C522,7798 501,7790 486,7790C392,7790 330,7745 316,7669C309,7630 319,7620 361,7620C386,7620 385,7602 358,7580C339,7565 338,7560 349,7546C356,7537 374,7530 389,7530C429,7530 460,7519 460,7506C460,7499 432,7485 397,7474C349,7458 335,7449 335,7434C335,7420 345,7413 375,7407C397,7403 443,7392 477,7385C511,7377 554,7370 574,7370C594,7370 610,7366 610,7361C610,7349 557,7322 498,7304C469,7295 450,7283 450,7275C450,7236 588,7211 842,7204C1017,7198 1035,7187 915,7155C883,7147 847,7131 835,7120C823,7108 797,7095 777,7089C737,7078 691,7025 707,7009C712,7004 740,6998 768,6996C797,6994 827,6987 834,6980C845,6972 874,6970 938,6975C997,6980 1039,6978 1063,6971C1092,6961 1110,6963 1171,6980C1248,7001 1345,7006 1369,6991C1383,6982 1371,6977 1278,6955C1263,6951 1246,6942 1239,6934C1233,6926 1209,6915 1186,6909C1131,6894 1020,6842 1020,6830C1020,6821 1033,6816 1087,6805C1126,6797 1129,6777 1096,6755C1083,6746 1065,6719 1055,6695C1046,6670 1035,6650 1030,6650C1021,6650 998,6742 996,6792C995,6817 984,6842 962,6869C915,6928 885,6925 825,6858L779,6805L748,6843C687,6919 598,6941 572,6888C556,6854 530,6852 489,6882C462,6902 456,6903 427,6891C387,6875 383,6875 344,6891C316,6902 308,6901 284,6884C266,6872 236,6865 205,6864C141,6863 68,6850 53,6837C46,6832 40,6815 40,6799C40,6784 33,6764 24,6756C10,6741 10,6739 25,6734C37,6729 40,6720 36,6704C31,6685 34,6679 54,6674C68,6671 84,6662 90,6655C99,6644 93,6639 61,6630C-11,6611 18,6585 133,6566C172,6559 205,6549 207,6543C210,6536 187,6526 153,6519C82,6504 60,6494 60,6475C60,6454 119,6442 250,6435C386,6428 430,6422 430,6411C430,6406 406,6400 378,6397C306,6388 160,6339 160,6323C160,6297 219,6279 303,6280C348,6280 436,6278 498,6275C606,6268 639,6257 583,6244C530,6233 485,6218 465,6205C454,6199 433,6190 418,6186C373,6176 320,6139 320,6120C320,6098 339,6090 393,6090C416,6090 441,6083 451,6074C466,6060 478,6060 537,6069C616,6081 802,6080 797,6066C795,6061 763,6049 725,6039C605,6007 566,5993 562,5982C556,5962 658,5920 716,5920C763,5920 770,5917 770,5901C770,5885 780,5880 816,5874C841,5871 885,5871 913,5875C942,5879 1028,5884 1105,5886C1182,5887 1297,5894 1361,5902C1486,5916 1510,5915 1510,5896C1510,5887 1482,5881 1417,5877C1311,5870 1276,5859 1245,5826C1229,5808 1207,5800 1161,5795C1112,5789 1096,5783 1084,5765C1075,5752 1056,5739 1042,5735C1027,5732 997,5714 975,5695C936,5661 936,5660 954,5645C967,5636 995,5630 1031,5630C1067,5630 1100,5624 1118,5613C1145,5598 1155,5597 1213,5609C1271,5620 1282,5620 1302,5606C1330,5586 1357,5586 1472,5606C1523,5615 1582,5620 1603,5617C1640,5612 1657,5615 1780,5651C1841,5668 1898,5679 2032,5700C2095,5709 2280,5702 2280,5689C2280,5685 2256,5679 2228,5675C2199,5671 2153,5662 2126,5654C2099,5646 2046,5640 2009,5640C1952,5640 1937,5636 1912,5615C1895,5601 1876,5590 1868,5590C1846,5590 1830,5569 1830,5540C1830,5516 1835,5513 1898,5501C1957,5490 2178,5480 2340,5481C2829,5486 3036,5479 3141,5452C3284,5416 3475,5328 3546,5265C3578,5236 3606,5178 3617,5115C3620,5099 3630,5076 3640,5065C3691,5005 3736,4837 3745,4670C3751,4552 3756,4506 3791,4245C3817,4054 3826,3989 3839,3915C3855,3828 3853,3800 3834,3800C3807,3800 3666,3888 3628,3928C3608,3948 3588,3977 3584,3993C3571,4032 3585,4233 3611,4382C3632,4508 3632,4509 3613,4542C3597,4569 3587,4576 3552,4580L3509,4585L3540,4633C3570,4680 3571,4689 3553,4753C3551,4763 3539,4770 3525,4770C3484,4770 3454,4787 3433,4822C3418,4847 3403,4858 3367,4868C3308,4883 3267,4883 3253,4869C3244,4860 3233,4860 3211,4870C3169,4887 3133,4871 3098,4819C3071,4782 3039,4768 3025,4789C3021,4797 3015,4839 3010,4901C3010,4905 2999,4911 2985,4914C2970,4918 2960,4928 2960,4939C2960,4958 2931,4990 2913,4990C2908,4990 2895,4999 2885,5010C2875,5021 2859,5030 2850,5030C2827,5030 2780,4992 2780,4975C2780,4967 2762,4956 2740,4950C2701,4940 2670,4903 2670,4867C2670,4860 2660,4845 2647,4834C2631,4820 2620,4793 2611,4745C2603,4706 2589,4665 2579,4652L2561,4629L2550,4650C2543,4663 2539,4722 2540,4803C2540,4876 2539,4956 2536,4981C2530,5042 2505,5090 2480,5090C2469,5090 2452,5100 2441,5112C2411,5144 2368,5170 2345,5170C2316,5170 2253,5102 2245,5060C2241,5041 2227,5015 2214,5003C2200,4990 2190,4969 2190,4953C2190,4916 2171,4850 2161,4850C2136,4850 2132,4986 2155,5070C2163,5100 2170,5145 2170,5168C2170,5204 2166,5213 2150,5217C2138,5220 2123,5235 2114,5251C2103,5274 2093,5280 2067,5280C2045,5280 2031,5273 2022,5260C2015,5248 1999,5235 1986,5230C1960,5220 1870,5094 1870,5067C1870,5058 1866,5050 1860,5050C1843,5050 1830,5088 1830,5139C1830,5185 1810,5237 1778,5277C1762,5297 1680,5321 1661,5311C1652,5306 1629,5279 1610,5251C1591,5223 1571,5201 1565,5203C1560,5205 1545,5233 1533,5265C1507,5331 1476,5370 1448,5370C1421,5370 1390,5352 1390,5336C1390,5328 1383,5317 1375,5310C1363,5300 1356,5303 1335,5326C1321,5341 1310,5361 1310,5370C1310,5401 1252,5411 1230,5385C1211,5362 1182,5367 1168,5398C1157,5419 1149,5424 1130,5421C1116,5419 1062,5417 1010,5416L915,5415L905,5348C899,5311 887,5273 878,5263C856,5239 855,5214 875,5206C894,5199 894,5176 875,5160C850,5139 858,5123 903,5098C958,5068 957,5048 901,5034C808,5012 821,4968 929,4930C969,4916 1002,4901 1002,4895C1003,4890 988,4878 971,4870C826,4799 883,4750 1114,4745C1197,4743 1226,4727 1168,4716C1126,4708 1020,4658 997,4636C974,4613 975,4605 1007,4575C1033,4551 1039,4550 1130,4554C1182,4556 1237,4563 1252,4569C1294,4585 1481,4602 1515,4592C1542,4584 1538,4582 1470,4571C1326,4548 1289,4538 1272,4521C1263,4511 1232,4491 1203,4475C1153,4448 1134,4427 1145,4409C1148,4405 1181,4392 1218,4382C1300,4360 1433,4361 1565,4385C1665,4404 2060,4417 2154,4406C2255,4393 2202,4380 2049,4380C1949,4380 1891,4376 1877,4368C1865,4361 1817,4353 1770,4350C1702,4346 1677,4339 1652,4321C1632,4307 1589,4293 1539,4284C1491,4276 1448,4262 1433,4250C1399,4224 1384,4225 1347,4256C1323,4277 1310,4280 1286,4275C1269,4271 1229,4269 1196,4269C1159,4270 1130,4265 1115,4256C1100,4246 1061,4240 1003,4238L915,4235L918,4186C920,4151 917,4133 904,4118C889,4103 888,4095 897,4080C911,4059 899,4045 865,4038C826,4031 836,4002 889,3973C917,3958 938,3941 937,3935C935,3930 916,3922 895,3918C854,3909 840,3897 840,3869C840,3850 967,3800 1013,3800C1065,3800 1040,3781 952,3754C843,3721 830,3710 861,3681C882,3661 895,3660 1039,3660C1195,3660 1225,3653 1125,3639C1095,3635 1059,3623 1045,3612C1031,3600 1005,3588 987,3585C969,3581 934,3568 908,3557C848,3529 847,3504 905,3475C942,3457 968,3455 1235,3454C1534,3452 1710,3443 1710,3430C1710,3426 1619,3420 1508,3419C1334,3416 1301,3412 1280,3398C1264,3386 1237,3380 1200,3380C1164,3380 1130,3373 1105,3360C1084,3349 1050,3337 1031,3334C1011,3330 973,3316 945,3302L896,3278L919,3259C932,3248 953,3240 966,3240C979,3240 998,3231 1007,3220C1021,3204 1037,3200 1087,3200C1134,3200 1151,3196 1158,3183C1166,3169 1181,3168 1271,3173C1336,3176 1382,3174 1394,3168C1407,3161 1532,3157 1741,3156C2032,3155 2095,3151 2079,3136C2077,3133 2027,3128 1970,3125C1898,3120 1853,3112 1827,3099C1806,3088 1769,3080 1741,3080C1677,3080 1630,3063 1630,3040C1630,3022 1601,3012 1517,3004C1467,2999 1440,2984 1440,2960C1440,2945 1431,2939 1400,2934C1377,2930 1347,2918 1333,2907C1318,2895 1293,2879 1276,2870C1260,2862 1244,2849 1242,2842C1237,2827 1299,2800 1339,2800C1356,2800 1373,2793 1377,2785C1384,2773 1399,2772 1474,2780C1574,2792 1596,2788 1603,2758C1609,2738 1612,2737 1702,2745C1753,2749 1840,2754 1895,2755C1950,2756 2033,2764 2080,2774C2299,2817 2407,2830 2569,2830C2699,2830 2750,2826 2819,2810C2990,2769 3224,2683 3193,2673C3187,2671 3112,2691 3027,2719C2815,2787 2620,2815 2507,2793C2439,2779 2431,2775 2433,2756C2435,2736 2430,2735 2331,2730C2259,2727 2225,2721 2222,2712C2213,2685 2188,2671 2133,2664C2088,2659 2070,2651 2048,2628C2034,2612 2008,2595 1992,2589C1964,2579 1935,2537 1945,2521C1947,2516 1968,2510 1989,2506C2011,2503 2038,2490 2049,2479C2065,2462 2079,2458 2122,2460C2206,2464 2212,2462 2205,2441C2194,2406 2231,2401 2370,2419C2425,2426 2490,2427 2554,2421C2627,2415 2666,2416 2703,2426C2730,2433 2757,2437 2764,2434C2776,2429 3024,2471 3100,2490C3275,2534 3449,2532 3539,2485C3556,2477 3574,2470 3579,2470C3598,2470 3737,2403 3836,2345C3888,2315 3934,2290 3936,2290C3939,2290 3973,2268 4013,2241C4084,2193 4110,2160 4110,2118C4110,2106 4121,2058 4135,2011C4185,1840 4249,1604 4259,1550C4292,1386 4339,1136 4350,1070C4356,1029 4368,967 4376,933C4394,854 4394,811 4376,804C4360,798 4221,871 4104,947C4042,987 4020,1008 4007,1037C3977,1109 3978,1123 4019,1212C4040,1257 4064,1318 4074,1345C4149,1574 4150,1578 4150,1667C4150,1783 4129,1807 4072,1755C4048,1733 4010,1721 4010,1735C4010,1738 4026,1772 4046,1811C4075,1870 4081,1893 4083,1953L4085,2025L4035,2025L3985,2025L3980,2085C3975,2150 3971,2153 3898,2135C3871,2128 3870,2129 3870,2164C3870,2201 3867,2203 3805,2212C3793,2214 3784,2224 3782,2238C3779,2258 3769,2265 3746,2261C3742,2260 3727,2266 3714,2275C3678,2298 3616,2294 3570,2265C3548,2251 3530,2234 3530,2227C3530,2219 3515,2207 3498,2199C3470,2187 3465,2180 3465,2150C3465,2119 3462,2115 3430,2109C3383,2099 3369,2078 3381,2034C3387,2015 3388,1995 3385,1990C3382,1984 3357,1981 3331,1982C3302,1983 3276,1979 3266,1971C3242,1951 3246,1895 3275,1843C3289,1818 3299,1795 3296,1792C3293,1790 3267,1792 3239,1797C3193,1806 3185,1805 3168,1788C3148,1768 3151,1738 3176,1709C3184,1701 3190,1689 3190,1684C3190,1679 3210,1653 3235,1626C3260,1599 3280,1573 3280,1569C3280,1559 3258,1553 3195,1544C3131,1535 3084,1509 3088,1484C3095,1433 3102,1420 3130,1403C3149,1392 3160,1377 3160,1364C3160,1343 3225,1290 3251,1290C3257,1290 3277,1281 3295,1270C3333,1246 3618,1149 3750,1115C3814,1098 3852,1082 3869,1065C3907,1028 3886,1023 3823,1054C3742,1093 3642,1130 3613,1130C3591,1130 3590,1127 3596,1093C3600,1072 3604,1052 3606,1048C3608,1045 3643,1032 3682,1019C3752,997 3753,995 3718,992C3692,990 3653,1001 3583,1030C3373,1119 3198,1140 2893,1115C2775,1105 2738,1067 2797,1016L2824,992L2785,981C2763,975 2736,970 2724,970C2687,970 2602,940 2596,925C2592,914 2574,910 2522,910C2462,910 2451,907 2430,885C2417,871 2395,860 2381,860C2350,860 2336,851 2327,828C2323,817 2310,810 2297,810C2269,810 2220,775 2220,755C2220,747 2228,737 2238,732C2265,717 2390,711 2452,721C2487,727 2525,727 2550,721C2583,714 2605,717 2670,738C2741,761 2752,762 2777,750C2798,739 2843,737 2961,739C3090,742 3122,739 3149,726C3174,713 3197,710 3258,715C3419,728 3579,783 3689,863C3762,917 3788,924 3883,915C3944,909 3964,902 4013,869C4045,848 4075,830 4080,830C4085,830 4124,814 4167,795C4281,743 4397,663 4415,626C4467,515 4518,373 4537,290C4540,276 4548,258 4555,250C4562,242 4570,217 4572,195C4583,114 4613,32 4635,26C4699,8 4820,31 4820,60C4820,66 4784,177 4739,307C4695,438 4655,559 4650,575C4582,818 4573,861 4551,1040C4546,1087 4536,1161 4531,1205C4525,1249 4518,1325 4514,1373L4507,1461L4540,1495C4559,1514 4601,1569 4635,1617C4668,1666 4702,1705 4710,1705C4718,1705 4723,1698 4721,1690C4713,1655 4708,1499 4714,1466C4723,1421 4752,1407 4805,1421C4840,1431 4845,1430 4879,1396C4923,1353 4981,1346 5002,1380C5021,1409 5047,1405 5091,1365C5137,1324 5179,1319 5225,1350C5264,1376 5282,1375 5314,1345C5347,1315 5392,1312 5420,1340C5443,1363 5477,1365 5504,1345C5529,1326 5549,1326 5569,1344C5582,1356 5594,1356 5631,1348C5694,1333 5734,1344 5726,1372C5723,1384 5726,1400 5732,1407C5738,1414 5740,1429 5737,1441C5734,1453 5738,1473 5746,1485C5765,1513 5756,1535 5720,1550C5678,1568 5676,1586 5716,1609C5735,1620 5750,1634 5750,1639C5750,1654 5708,1680 5685,1680C5673,1680 5655,1687 5644,1695C5625,1710 5625,1710 5649,1731C5680,1757 5669,1779 5614,1800C5551,1824 5546,1829 5565,1850C5574,1860 5580,1880 5578,1896C5575,1925 5576,1925 5623,1923C5650,1921 5680,1916 5690,1910C5700,1905 5729,1900 5754,1900C5793,1900 5801,1904 5812,1927C5834,1971 5854,1977 5907,1956C5934,1946 5975,1937 5999,1936C6038,1935 6045,1938 6060,1965C6077,1994 6079,1995 6140,1992C6226,1987 6250,1994 6250,2025C6250,2039 6253,2051 6258,2051C6262,2052 6287,2054 6313,2055C6353,2057 6367,2063 6390,2089C6407,2107 6429,2120 6443,2120C6478,2120 6496,2145 6479,2167C6452,2204 6378,2270 6364,2270C6355,2270 6350,2281 6350,2305L6350,2340L6286,2340C6223,2340 6221,2341 6218,2368C6215,2398 6219,2397 6092,2386C6021,2380 6019,2381 6025,2401C6032,2422 6031,2422 5936,2415C5872,2411 5840,2412 5840,2418C5840,2424 5845,2432 5850,2435C5864,2443 5853,2460 5837,2455C5830,2453 5781,2435 5726,2415C5672,2395 5625,2382 5621,2385C5612,2395 5681,2449 5720,2461C5739,2467 5798,2474 5851,2477C5935,2482 5958,2479 6040,2455C6116,2434 6145,2430 6190,2435C6220,2439 6280,2441 6323,2441C6376,2440 6411,2445 6432,2456C6456,2468 6478,2470 6530,2465C6590,2459 6602,2461 6627,2479C6651,2496 6661,2498 6695,2490C6736,2481 6780,2486 6780,2500C6780,2504 6806,2510 6838,2514C6947,2525 6970,2531 6970,2549C6970,2559 6963,2575 6955,2586C6947,2596 6940,2611 6940,2618C6940,2625 6930,2644 6918,2660C6899,2686 6890,2690 6846,2691C6776,2691 6717,2703 6713,2717C6710,2724 6731,2733 6767,2741C6852,2759 6851,2767 6764,2775C6654,2784 6655,2784 6655,2800C6655,2822 6633,2829 6564,2829C6522,2830 6498,2835 6490,2845C6472,2867 6482,2873 6543,2877C6580,2880 6647,2870 6776,2841C6875,2819 6972,2800 6991,2800C7009,2800 7057,2800 7095,2798C7177,2796 7386,2802 7467,2809C7473,2810 7480,2818 7482,2827C7485,2842 7498,2845 7573,2846C7622,2847 7666,2852 7672,2858C7686,2872 7632,2940 7607,2940C7587,2940 7552,2957 7533,2976C7526,2983 7488,2994 7448,3000C7408,3007 7356,3023 7334,3037C7311,3050 7254,3068 7209,3076C7163,3085 7120,3096 7115,3100C7109,3105 7064,3112 7015,3116C6929,3123 6927,3124 6965,3134C6992,3140 7060,3139 7175,3131C7347,3119 7401,3109 7543,3064C7586,3051 7634,3040 7649,3040C7665,3040 7711,3027 7751,3011C7792,2995 7845,2979 7869,2976C7893,2972 7925,2963 7941,2955C7979,2935 8070,2935 8070,2954C8070,2973 7984,3045 7888,3108C7813,3156 7725,3195 7630,3221C7552,3242 7560,3252 7650,3245C7733,3238 7924,3188 7935,3169C7939,3164 7952,3160 7965,3160C7977,3160 8019,3145 8056,3126C8211,3051 8338,3052 8227,3128C8204,3145 8171,3172 8153,3189C8135,3206 8109,3222 8095,3226C8081,3229 8071,3235 8074,3237C8083,3246 8193,3209 8249,3177C8280,3160 8323,3132 8345,3114C8391,3077 8478,3037 8492,3046C8497,3049 8499,3063 8496,3076C8488,3106 8512,3108 8565,3083C8615,3059 8627,3076 8593,3123C8579,3143 8569,3163 8573,3166C8576,3169 8602,3161 8631,3147L8684,3122L8719,3151C8739,3168 8766,3180 8782,3180C8835,3180 8812,3207 8738,3235C8698,3250 8658,3266 8650,3271C8642,3276 8619,3287 8600,3295C8581,3303 8544,3321 8519,3335C8494,3348 8454,3362 8431,3366C8404,3370 8370,3387 8341,3409C8299,3442 8290,3445 8236,3443C8167,3440 8140,3452 8140,3485C8140,3537 8043,3571 7996,3535C7964,3511 7934,3516 7920,3549C7899,3600 7877,3612 7796,3617L7722,3622L7677,3581C7628,3535 7600,3528 7600,3561C7600,3604 7576,3662 7556,3669C7544,3673 7484,3677 7422,3679L7310,3681L7272,3643C7252,3622 7228,3589 7219,3570C7210,3551 7197,3524 7190,3510C7184,3496 7174,3478 7167,3470C7148,3444 7000,3347 6993,3354C6989,3358 7016,3389 7053,3423C7090,3457 7120,3491 7120,3499C7120,3506 7133,3536 7150,3565C7180,3617 7180,3617 7160,3635C7147,3647 7140,3666 7140,3690C7140,3714 7133,3733 7120,3745C7109,3755 7100,3774 7100,3787C7100,3800 7093,3813 7084,3817C7076,3820 7064,3833 7059,3846C7049,3874 7028,3876 6947,3855C6915,3847 6880,3840 6869,3840C6858,3840 6835,3826 6818,3810C6802,3793 6779,3780 6766,3780C6732,3780 6701,3753 6694,3715C6688,3682 6673,3662 6635,3635C6618,3624 6615,3610 6615,3543C6614,3478 6608,3449 6577,3366C6515,3201 6429,3080 6375,3080C6354,3080 6356,3090 6387,3135C6402,3157 6440,3217 6472,3269C6525,3356 6528,3365 6514,3381C6500,3396 6501,3403 6529,3452C6546,3482 6560,3510 6560,3513C6560,3517 6546,3527 6529,3536C6504,3548 6499,3556 6505,3573C6522,3629 6522,3638 6502,3644C6487,3649 6483,3659 6484,3688C6485,3721 6482,3725 6458,3728C6437,3731 6431,3737 6428,3758C6425,3782 6421,3785 6387,3784C6362,3783 6334,3772 6305,3751C6281,3734 6245,3717 6223,3712C6190,3706 6181,3697 6159,3655C6130,3597 6102,3581 6022,3573C5981,3569 5955,3559 5930,3540C5911,3525 5877,3505 5856,3495C5834,3484 5810,3463 5801,3446C5773,3393 5744,3370 5706,3370C5667,3370 5648,3355 5632,3313C5614,3266 5587,3044 5581,2895L5575,2755L5549,2757C5535,2758 5506,2765 5486,2774C5448,2790 5448,2790 5464,2815C5474,2830 5480,2861 5480,2900L5480,2960L5450,2960C5434,2960 5420,2964 5420,2970C5420,2975 5436,3009 5455,3044C5474,3080 5490,3113 5490,3118C5490,3123 5477,3130 5460,3134C5431,3139 5430,3142 5430,3189C5430,3216 5426,3242 5420,3245C5415,3248 5410,3260 5410,3270C5410,3280 5385,3310 5355,3336C5301,3383 5300,3384 5319,3404C5344,3432 5336,3448 5294,3456C5253,3464 5244,3475 5261,3497C5272,3510 5271,3514 5255,3526C5245,3534 5222,3540 5206,3540C5168,3540 5155,3549 5155,3575C5155,3592 5147,3595 5095,3598C5022,3602 5009,3612 5038,3643C5050,3656 5060,3670 5060,3674C5060,3679 5032,3680 4998,3676C4937,3670 4936,3670 4963,3686C4998,3705 5038,3707 5110,3691C5210,3668 5259,3666 5279,3684C5289,3693 5310,3702 5326,3704C5401,3714 5437,3724 5455,3740C5491,3772 5518,3780 5583,3780C5637,3780 5651,3784 5674,3805C5695,3825 5712,3830 5751,3830C5788,3830 5804,3835 5817,3850C5827,3862 5847,3870 5865,3870C5903,3870 6004,3921 6008,3942C6010,3951 5994,3981 5973,4009C5938,4056 5932,4060 5894,4060C5849,4060 5780,4084 5780,4100C5780,4106 5822,4110 5883,4110C5968,4110 5990,4113 6015,4130C6032,4141 6058,4150 6073,4150C6102,4150 6194,4192 6205,4211C6228,4247 6348,4271 6526,4274L6615,4275L6618,4303L6621,4332L6758,4330C6833,4329 6938,4333 6990,4340C7042,4347 7144,4353 7215,4355C7365,4358 7452,4370 7457,4387C7464,4407 7404,4437 7275,4480C7182,4511 7129,4522 7038,4530C6974,4535 6909,4545 6893,4551C6867,4561 6866,4563 6885,4570C6896,4575 6965,4579 7038,4579C7201,4580 7476,4536 7593,4491C7624,4479 7807,4493 7823,4509C7848,4534 7634,4648 7502,4679C7474,4686 7447,4696 7444,4701C7435,4716 7679,4711 7770,4694C7950,4661 8033,4658 7998,4687C7991,4693 7942,4720 7890,4746C7812,4786 7800,4795 7821,4798C7836,4800 7902,4785 7968,4765C8096,4726 8125,4724 8125,4754C8125,4767 8105,4780 8053,4802C8013,4819 7980,4837 7980,4841C7980,4857 8054,4850 8128,4828C8185,4812 8203,4809 8213,4819C8222,4828 8220,4835 8200,4850C8175,4870 8178,4873 8215,4871C8226,4870 8242,4874 8250,4879C8284,4902 8170,4979 8102,4980C8083,4980 8035,4993 7993,5010C7952,5027 7902,5040 7882,5040C7862,5041 7827,5047 7805,5055C7744,5077 7697,5074 7671,5046L7648,5022L7589,5046C7556,5058 7508,5072 7483,5076C7458,5080 7419,5093 7396,5106C7345,5135 7284,5145 7246,5131C7219,5120 7218,5117 7224,5079C7231,5036 7219,5010 7194,5010C7186,5010 7180,5016 7180,5024C7180,5031 7154,5053 7123,5074C7055,5116 6992,5122 6925,5091C6870,5066 6844,5033 6837,4981C6828,4907 6783,4899 6762,4967C6752,4997 6741,5011 6720,5020C6704,5027 6688,5040 6685,5050C6682,5060 6665,5073 6648,5079C6630,5085 6608,5098 6597,5107C6571,5131 6506,5126 6437,5095C6387,5072 6379,5064 6370,5029C6364,5006 6353,4990 6344,4990C6336,4990 6325,4979 6320,4965C6312,4944 6304,4940 6268,4940C6244,4940 6216,4933 6206,4925C6195,4917 6178,4910 6167,4910C6157,4910 6124,4898 6094,4884C6042,4859 6038,4859 6020,4875C6003,4891 5994,4891 5933,4880C5896,4874 5842,4860 5815,4849C5787,4839 5754,4830 5742,4830C5715,4830 5666,4806 5627,4774C5611,4761 5589,4750 5577,4750C5565,4750 5541,4742 5524,4731C5500,4716 5491,4701 5480,4656C5472,4621 5459,4593 5446,4584C5434,4576 5418,4548 5409,4522C5392,4472 5383,4468 5325,4490L5297,4501L5323,4528C5357,4563 5381,4630 5368,4653C5362,4664 5363,4677 5370,4691C5384,4715 5376,4740 5356,4740C5348,4740 5335,4753 5327,4770C5314,4796 5314,4801 5328,4812C5336,4819 5365,4826 5392,4826C5459,4828 5458,4828 5462,4853C5465,4873 5471,4875 5550,4880C5643,4886 5660,4892 5660,4920C5660,4941 5679,4950 5724,4950C5747,4950 5765,4959 5784,4979C5818,5015 5813,5036 5768,5045C5750,5049 5731,5055 5725,5059C5720,5062 5695,5072 5670,5080C5637,5091 5624,5101 5622,5118C5617,5152 5583,5168 5505,5175C5467,5179 5415,5191 5390,5203C5359,5217 5317,5225 5255,5228C5192,5231 5162,5237 5154,5247C5145,5260 5127,5260 5004,5245C4928,5236 4814,5215 4752,5199C4574,5153 4566,5161 4718,5229C4804,5267 4826,5273 4978,5290C5166,5312 5366,5315 5590,5299C5739,5289 5743,5289 5765,5310C5786,5330 5792,5331 5890,5321C5946,5315 6014,5310 6041,5310C6085,5310 6092,5313 6100,5336C6109,5360 6114,5362 6148,5356C6168,5352 6202,5347 6223,5343C6267,5337 6290,5351 6272,5373C6256,5392 6267,5400 6311,5400C6336,5400 6353,5406 6362,5418C6369,5427 6387,5441 6403,5447C6418,5454 6430,5467 6430,5475C6430,5495 6367,5522 6337,5515C6320,5510 6309,5516 6292,5539C6273,5565 6262,5570 6230,5570C6205,5570 6184,5577 6173,5588C6141,5621 6096,5632 6009,5628C5932,5625 5925,5627 5922,5645C5913,5690 5903,5693 5770,5687C5701,5684 5584,5674 5510,5665C5391,5652 5362,5644 5267,5604C5207,5579 5156,5561 5153,5564C5149,5567 5149,5572 5151,5573C5261,5663 5510,5753 5655,5756C6139,5768 6265,5775 6265,5790C6265,5802 6286,5806 6375,5810C6488,5815 6510,5821 6510,5845C6510,5854 6529,5861 6568,5865C6642,5873 6651,5877 6657,5898C6659,5907 6676,5922 6693,5930C6741,5952 6740,5977 6691,5990C6668,5996 6650,6005 6650,6010C6650,6034 6616,6050 6564,6050C6525,6050 6510,6054 6510,6064C6510,6100 6485,6105 6260,6112C6159,6116 5983,6094 5890,6067C5766,6032 5750,6028 5750,6040C5750,6061 5907,6128 6020,6155C6108,6176 6179,6184 6325,6192C6486,6201 6518,6205 6539,6221C6553,6233 6579,6240 6604,6240C6669,6240 6718,6258 6742,6290C6754,6307 6770,6320 6777,6320C6793,6320 6840,6368 6840,6384C6840,6390 6821,6401 6798,6407C6625,6452 6627,6452 6508,6446C6431,6442 6389,6444 6385,6451C6381,6457 6380,6464 6383,6466C6398,6481 6546,6510 6634,6515C6716,6520 6738,6524 6751,6540C6764,6555 6783,6560 6846,6562C6924,6565 6925,6565 6930,6593C6933,6609 6945,6626 6960,6633C6973,6640 6990,6656 6997,6670C7008,6692 7006,6697 6975,6727C6952,6750 6925,6763 6894,6769C6869,6774 6843,6783 6837,6789C6819,6807 6851,6831 6901,6837C6925,6840 6954,6851 6965,6861C6976,6871 7001,6886 7020,6894C7039,6902 7075,6927 7100,6950L7145,6992L7122,7010C7106,7024 7090,7027 7065,7023C6985,7010 6988,7077 7068,7105C7093,7113 7147,7120 7187,7120C7289,7120 7332,7146 7275,7172C7232,7191 7245,7208 7309,7216C7357,7221 7367,7225 7363,7238C7358,7251 7366,7252 7418,7247C7452,7244 7480,7246 7480,7250C7480,7254 7504,7264 7533,7270C7561,7277 7589,7289 7593,7296C7597,7304 7614,7310 7630,7310C7669,7310 7668,7325 7628,7346C7595,7363 7514,7377 7388,7386C7348,7390 7316,7397 7309,7406C7294,7424 7232,7424 7200,7405C7167,7386 7132,7386 7113,7406C7089,7430 7039,7418 6962,7371L6896,7331L6862,7352C6839,7366 6820,7370 6799,7366C6756,7358 6688,7306 6652,7254C6619,7208 6601,7200 6580,7225C6573,7233 6564,7240 6560,7240C6556,7240 6511,7213 6461,7180L6370,7120L6370,7065C6370,7035 6366,7010 6362,7010C6357,7010 6338,7030 6320,7055C6300,7081 6275,7103 6260,7106C6246,7109 6227,7114 6218,7116C6197,7122 6119,7067 6102,7034C6084,7000 6050,6995 6002,7019C5979,7031 5949,7040 5935,7040C5917,7040 5910,7045 5910,7060C5910,7077 5903,7080 5872,7080C5850,7080 5807,7089 5775,7100C5743,7111 5705,7120 5691,7120C5677,7120 5670,7124 5676,7128C5688,7140 5877,7160 5969,7160C6020,7160 6048,7165 6059,7174C6069,7183 6113,7193 6169,7198C6220,7203 6267,7213 6273,7219C6279,7225 6304,7230 6328,7230C6376,7230 6450,7249 6450,7260C6450,7274 6426,7288 6340,7326C6256,7363 6253,7363 6136,7362C6070,7361 6020,7364 6026,7368C6037,7378 6266,7430 6298,7430C6311,7430 6334,7437 6350,7445C6365,7453 6403,7463 6434,7466C6490,7473 6550,7501 6550,7520C6550,7538 6468,7569 6420,7571L6375,7572L6415,7585C6437,7592 6484,7612 6520,7629C6556,7646 6591,7660 6598,7660C6616,7660 6690,7699 6690,7708C6690,7731 6660,7740 6581,7741C6533,7741 6486,7745 6475,7750C6456,7757 6456,7758 6480,7767C6494,7773 6547,7787 6597,7800C6707,7827 6758,7854 6740,7875C6734,7883 6716,7890 6702,7892C6659,7897 6670,7922 6728,7953C6780,7981 6797,8010 6761,8010C6728,8010 6727,8029 6760,8048C6784,8061 6789,8070 6785,8087C6781,8103 6786,8112 6800,8120C6813,8127 6820,8141 6820,8160C6820,8188 6817,8190 6784,8190C6750,8190 6716,8183 6629,8158C6603,8151 6587,8151 6571,8160C6541,8175 6505,8166 6478,8135C6456,8110 6416,8102 6405,8120C6402,8126 6385,8130 6369,8130C6339,8130 6320,8115 6272,8051C6235,8002 6209,8012 6186,8084C6181,8099 6173,8101 6146,8096C6122,8091 6097,8097 6055,8115C5983,8147 5992,8160 6088,8164C6127,8165 6163,8169 6166,8173C6170,8177 6162,8188 6150,8198C6118,8224 6132,8244 6177,8235C6201,8231 6219,8234 6236,8245C6267,8265 6266,8276 6235,8284C6204,8292 6210,8306 6249,8315C6277,8321 6350,8378 6350,8394C6350,8398 6296,8401 6229,8399C6123,8395 6107,8397 6099,8413C6086,8436 6023,8436 5974,8413L5938,8395L5915,8424C5895,8449 5887,8452 5855,8447C5835,8444 5797,8427 5769,8411C5707,8372 5695,8372 5683,8413C5675,8443 5671,8445 5629,8444C5586,8444 5548,8423 5451,8348C5419,8323 5401,8325 5390,8355C5384,8370 5373,8380 5361,8380C5351,8380 5305,8346 5259,8304C5180,8233 5140,8203 5140,8214C5140,8217 5148,8235 5157,8254C5173,8289 5173,8290 5147,8310C5121,8331 5121,8332 5135,8367C5150,8403 5144,8419 5117,8420C5099,8420 5006,8367 4977,8339C4957,8320 4939,8311 4927,8314C4896,8322 4836,8258 4811,8192C4772,8084 4720,8027 4720,8092C4720,8116 4727,8131 4745,8144C4759,8154 4770,8168 4770,8175C4770,8181 4759,8193 4745,8200C4720,8213 4710,8240 4730,8240C4736,8240 4740,8247 4740,8255C4740,8263 4736,8270 4730,8270C4725,8270 4720,8276 4720,8284C4720,8293 4738,8300 4778,8304C4886,8317 4893,8326 4825,8366C4800,8380 4783,8396 4786,8401C4789,8406 4817,8410 4850,8410C4894,8410 4909,8414 4914,8426C4919,8439 4935,8441 5008,8439C5061,8437 5104,8441 5117,8448C5129,8455 5152,8460 5169,8460C5210,8460 5211,8491 5170,8522C5154,8534 5140,8550 5140,8557C5140,8575 5167,8580 5315,8588C5436,8594 5445,8596 5445,8615C5445,8628 5432,8641 5408,8653C5387,8662 5370,8674 5370,8679C5370,8684 5405,8695 5448,8705C5550,8727 5580,8739 5580,8760C5580,8769 5568,8782 5554,8789C5540,8795 5530,8806 5533,8813C5538,8830 5580,8850 5613,8850C5655,8850 5682,8868 5675,8890C5671,8904 5677,8911 5705,8920C5740,8932 5749,8943 5730,8955C5715,8965 5718,8980 5738,8987C5747,8991 5774,9013 5797,9036C5859,9097 5847,9103 5656,9099C5521,9096 5499,9098 5482,9113C5459,9134 5414,9135 5368,9116C5332,9100 5317,9104 5307,9133C5298,9158 5243,9155 5195,9125C5144,9094 5122,9094 5108,9125C5102,9138 5089,9152 5080,9155C5063,9160 4959,9115 4891,9072C4851,9047 4845,9050 4825,9096C4817,9115 4806,9130 4800,9130C4780,9130 4652,9063 4603,9027C4527,8971 4504,8941 4491,8878C4484,8846 4474,8818 4469,8815C4454,8805 4446,8841 4458,8861C4465,8871 4470,8911 4471,8949C4473,9035 4458,9062 4399,9081C4348,9098 4336,9120 4377,9120C4392,9121 4439,9128 4480,9136C4521,9144 4597,9155 4648,9159C4750,9168 4785,9185 4760,9214C4753,9223 4742,9230 4734,9230C4716,9230 4706,9250 4717,9261C4723,9267 4756,9278 4791,9286C4826,9294 4865,9302 4878,9305C4908,9312 4906,9328 4873,9341L4845,9352L4869,9371C4882,9382 4904,9393 4919,9397C4956,9405 4969,9418 4963,9440C4959,9456 4965,9463 4989,9471C5007,9477 5020,9489 5020,9498C5020,9508 5043,9536 5071,9561C5144,9625 5135,9632 4989,9628C4904,9626 4868,9629 4859,9638C4843,9653 4796,9654 4753,9638C4724,9627 4718,9628 4697,9648C4663,9680 4629,9676 4572,9630C4544,9609 4519,9586 4515,9580C4512,9575 4502,9570 4495,9570C4485,9570 4481,9581 4483,9608C4485,9644 4483,9646 4433,9670C4404,9684 4381,9699 4383,9704C4388,9718 4507,9756 4572,9764C4602,9768 4636,9778 4646,9785C4664,9799 4664,9800 4641,9819C4613,9841 4618,9852 4671,9886C4699,9903 4710,9917 4710,9935C4710,9951 4720,9965 4740,9977C4757,9987 4769,10002 4768,10010C4766,10019 4780,10044 4798,10065C4832,10107 4839,10137 4816,10146C4808,10149 4757,10146 4703,10140C4594,10127 4576,10127 4509,10136C4467,10141 4459,10139 4426,10110C4394,10081 4384,10078 4348,10083C4298,10090 4280,10081 4217,10023L4169,9979L4139,10004C4117,10023 4097,10030 4069,10030C4018,10030 3996,10019 3938,9963L3892,9917L3865,9944C3851,9958 3832,9970 3824,9970C3797,9970 3736,9919 3697,9864C3657,9808 3638,9799 3609,9826C3599,9835 3583,9839 3573,9836C3525,9821 3455,9728 3414,9624C3399,9586 3378,9542 3369,9526C3354,9501 3350,9499 3344,9513C3341,9523 3341,9545 3344,9563C3348,9581 3355,9619 3360,9649C3372,9718 3438,9821 3496,9861C3520,9877 3613,9923 3702,9963C3901,10052 3985,10100 3985,10124C3985,10138 4012,10153 4100,10187C4163,10211 4235,10238 4259,10246C4326,10267 4335,10278 4310,10305C4282,10335 4294,10344 4414,10374C4468,10388 4515,10402 4519,10405C4522,10409 4517,10418 4506,10425C4479,10445 4493,10467 4539,10475C4584,10482 4597,10494 4602,10530C4604,10546 4616,10560 4635,10570C4674,10589 4770,10679 4770,10696C4770,10716 4735,10722 4672,10714C4641,10710 4568,10706 4510,10705C4445,10704 4392,10698 4372,10690C4345,10678 4336,10678 4319,10688C4288,10708 4168,10667 4126,10623C4090,10584 4073,10581 4064,10614C4061,10628 4052,10641 4044,10644C4009,10657 3912,10582 3895,10531C3886,10501 3852,10495 3822,10517C3808,10528 3795,10541 3792,10548C3790,10554 3817,10579 3852,10604C3887,10629 3929,10660 3946,10674C3964,10688 3981,10700 3984,10700C3987,10700 4033,10720 4085,10745C4165,10783 4180,10794 4180,10814C4180,10844 4199,10860 4240,10865C4284,10870 4320,10896 4320,10923C4321,10937 4335,10956 4361,10975C4384,10992 4418,11017 4439,11032C4501,11077 4489,11085 4368,11083C4279,11081 4250,11076 4195,11054C4159,11040 4123,11031 4114,11034C4090,11043 4012,11013 3968,10979C3941,10957 3923,10950 3907,10954C3891,10958 3872,10949 3841,10925C3795,10889 3785,10884 3776,10898C3767,10913 3882,11020 3943,11053C3978,11073 4000,11091 4000,11102C4000,11114 4018,11125 4064,11139C4155,11167 4209,11197 4220,11225C4225,11238 4238,11251 4249,11255C4260,11258 4283,11282 4300,11307C4339,11364 4330,11373 4246,11365C4211,11362 4173,11365 4154,11372C4126,11382 4114,11380 4062,11357C4029,11342 3991,11330 3976,11330C3961,11330 3918,11314 3879,11294C3779,11244 3762,11252 3825,11319C3852,11348 3898,11387 3926,11406C3958,11427 3982,11452 3988,11469C3994,11487 4022,11515 4059,11541C4100,11570 4120,11591 4120,11604C4120,11616 4129,11639 4140,11655C4152,11673 4160,11702 4160,11728C4160,11766 4158,11770 4136,11770C4123,11770 4107,11763 4100,11755C4093,11747 4082,11740 4075,11740C4068,11740 4036,11727 4005,11710C3974,11694 3943,11680 3936,11680C3930,11680 3905,11666 3881,11650C3857,11633 3835,11622 3832,11624C3821,11636 3843,11682 3882,11726C3933,11784 3944,11800 3971,11859C4010,11941 3978,12043 3926,12005C3891,11980 3828,11948 3823,11954C3820,11956 3830,11978 3844,12003C3858,12027 3870,12056 3870,12066C3870,12077 3877,12095 3885,12106C3906,12134 3904,12187 3881,12200C3853,12214 3824,12213 3789,12194C3753,12176 3741,12183 3758,12210C3765,12221 3770,12239 3770,12249C3770,12260 3775,12272 3780,12275C3786,12278 3790,12301 3790,12326L3790,12371L3738,12368C3689,12365 3685,12367 3682,12388C3680,12401 3686,12423 3695,12437C3705,12452 3709,12471 3706,12486C3700,12507 3694,12510 3654,12510L3609,12510L3612,12562C3615,12610 3613,12614 3590,12620C3569,12625 3565,12631 3568,12660C3570,12682 3564,12700 3551,12714C3540,12726 3530,12749 3528,12765C3524,12806 3492,12809 3463,12771ZM2618,9760C2622,9739 2595,9705 2582,9714C2575,9718 2570,9735 2570,9751C2570,9777 2573,9781 2592,9778C2605,9776 2616,9768 2618,9760ZM2921,9655C3080,9592 3100,9580 3143,9520C3178,9470 3180,9462 3180,9391C3180,9349 3175,9275 3169,9225C3150,9070 3129,9090 3111,9280C3098,9412 3098,9410 3004,9561C2968,9619 2891,9621 2869,9564C2854,9524 2827,9537 2818,9588C2814,9611 2802,9644 2790,9659C2779,9675 2770,9691 2770,9694C2770,9708 2814,9697 2921,9655ZM4240,9586C4240,9584 4233,9566 4225,9546C4210,9511 4188,9499 4175,9520C4165,9537 4199,9590 4220,9590C4231,9590 4240,9588 4240,9586ZM3915,9470C3921,9460 3894,9393 3879,9385C3871,9379 3840,9430 3840,9449C3840,9454 3852,9463 3868,9468C3904,9482 3908,9482 3915,9470ZM3690,9384C3690,9381 3679,9364 3665,9346C3651,9328 3640,9306 3640,9298C3640,9280 3606,9247 3597,9257C3593,9260 3590,9274 3590,9287C3590,9306 3585,9310 3560,9310C3527,9310 3520,9329 3545,9350C3573,9373 3690,9401 3690,9384ZM2483,9133C2510,9126 2487,9104 2442,9095C2412,9089 2403,9092 2388,9110C2378,9122 2373,9136 2376,9142C2382,9151 2438,9146 2483,9133ZM2680,9079C2732,9063 2793,9043 2815,9037C2859,9024 2869,8997 2832,8992C2820,8990 2805,8980 2800,8970C2795,8960 2782,8949 2773,8946C2763,8943 2745,8922 2732,8900C2719,8877 2704,8862 2698,8866C2693,8870 2677,8897 2663,8928C2650,8958 2621,9003 2599,9028C2561,9072 2548,9110 2572,9110C2579,9110 2627,9096 2680,9079ZM4290,8991C4290,8977 4231,8930 4214,8930C4206,8930 4189,8909 4177,8883C4147,8819 4087,8720 4078,8720C4066,8720 4058,8759 4065,8789C4069,8808 4066,8821 4055,8830C4047,8837 4040,8852 4040,8865C4040,8881 4032,8889 4008,8896C3991,8901 3975,8910 3973,8916C3969,8927 4109,8970 4151,8970C4164,8971 4186,8977 4200,8985C4228,9001 4290,9005 4290,8991ZM3015,8957C3057,8933 3112,8850 3124,8789C3136,8733 3141,8310 3130,8310C3125,8310 3109,8332 3095,8360C3075,8400 3070,8424 3070,8485C3070,8604 3036,8771 2991,8877C2943,8989 2946,8996 3015,8957ZM3890,8840C3890,8817 3845,8770 3823,8770C3784,8770 3771,8736 3744,8552C3740,8519 3734,8510 3722,8512C3711,8514 3704,8527 3702,8550C3698,8603 3673,8648 3647,8652C3635,8654 3621,8665 3615,8678C3601,8709 3585,8706 3554,8664C3539,8645 3508,8616 3484,8600C3417,8553 3380,8497 3343,8387C3313,8296 3309,8270 3303,8133C3300,8049 3293,7980 3289,7980C3272,7980 3258,8086 3253,8257L3248,8439L3276,8510C3304,8580 3307,8583 3398,8647C3448,8682 3527,8727 3573,8746C3618,8765 3680,8792 3710,8805C3801,8846 3890,8863 3890,8840ZM4603,8283C4607,8280 4586,8260 4555,8239C4521,8214 4500,8192 4500,8179C4500,8165 4493,8160 4472,8160C4433,8160 4419,8141 4365,8025C4298,7880 4288,7860 4278,7860C4265,7860 4268,7881 4290,7940C4319,8019 4317,8034 4280,8027C4245,8020 4243,8028 4266,8073C4282,8103 4282,8105 4261,8118C4250,8126 4240,8139 4240,8146C4240,8211 3979,8004 3930,7901C3905,7847 3887,7838 3870,7870C3864,7881 3852,7890 3844,7890C3836,7890 3824,7904 3819,7920C3808,7950 3801,7954 3767,7951C3757,7949 3746,7959 3741,7973C3735,7987 3720,8000 3705,8004C3684,8009 3669,8002 3619,7958C3586,7929 3552,7895 3544,7882C3532,7864 3523,7860 3501,7865C3475,7871 3471,7867 3447,7813C3387,7679 3382,7656 3374,7523C3367,7395 3368,7393 3399,7309C3417,7260 3430,7204 3430,7178C3430,7124 3406,7060 3386,7060C3370,7060 3365,7073 3355,7140C3351,7165 3335,7225 3319,7273C3291,7359 3290,7368 3290,7565L3290,7768L3333,7826C3409,7930 3452,7960 3601,8012C3675,8038 3780,8071 3835,8085C3890,8100 3969,8122 4010,8136C4051,8149 4119,8168 4160,8179C4201,8189 4236,8202 4237,8207C4239,8212 4224,8221 4203,8226C4107,8250 4191,8275 4360,8272C4428,8271 4462,8275 4480,8285C4503,8298 4578,8297 4603,8283ZM6089,8063C6052,8016 6008,7979 5995,7984C5987,7987 5963,7994 5941,8000C5918,8006 5900,8015 5900,8020C5900,8035 6022,8077 6074,8079C6100,8080 6101,8078 6089,8063ZM1398,7709C1392,7646 1330,7648 1330,7711C1330,7738 1333,7740 1366,7740C1400,7740 1401,7739 1398,7709ZM1638,7721C1648,7716 1733,7715 1832,7719C2080,7728 2102,7718 1909,7684C1866,7677 1804,7623 1794,7585C1791,7571 1781,7560 1772,7560C1743,7560 1720,7529 1720,7489C1720,7468 1716,7449 1711,7446C1696,7436 1670,7487 1658,7548C1647,7607 1613,7649 1548,7685C1532,7694 1520,7705 1520,7710C1520,7727 1611,7736 1638,7721ZM5110,7610C5110,7599 5103,7587 5094,7583C5077,7577 5008,7597 4982,7616C4968,7627 4976,7629 5038,7630C5104,7630 5110,7628 5110,7610ZM2165,7564L2260,7557L2256,7527C2254,7511 2246,7493 2236,7488C2227,7483 2213,7466 2205,7450C2197,7434 2180,7420 2168,7418C2136,7414 2124,7351 2145,7291C2160,7247 2158,7227 2141,7246C2129,7259 2103,7354 2095,7417C2091,7446 2082,7471 2075,7474C2067,7477 2051,7498 2040,7521C2022,7555 2021,7564 2032,7571C2039,7576 2051,7578 2058,7575C2065,7572 2113,7567 2165,7564ZM2580,7520C2643,7510 2719,7498 2748,7495C2804,7488 2821,7471 2800,7444C2791,7434 2778,7431 2760,7435C2738,7440 2731,7436 2722,7415C2715,7401 2710,7380 2710,7370C2710,7354 2704,7351 2673,7353L2635,7355L2635,7295C2635,7240 2633,7235 2612,7232C2578,7227 2553,7255 2535,7315C2527,7344 2506,7389 2488,7416C2460,7458 2450,7465 2419,7468C2395,7470 2374,7481 2355,7500C2300,7557 2334,7560 2580,7520ZM4686,7487C4687,7486 4685,7454 4681,7415C4675,7348 4674,7345 4648,7342C4632,7340 4620,7338 4619,7337C4618,7336 4616,7283 4614,7219C4610,7063 4566,6900 4530,6900C4517,6900 4518,6913 4535,6985C4555,7065 4554,7069 4524,7080C4501,7089 4499,7094 4505,7118C4521,7180 4506,7243 4476,7239C4448,7236 4440,7242 4440,7266C4440,7305 4422,7330 4395,7330C4380,7330 4370,7336 4370,7344C4370,7354 4392,7360 4448,7365C4542,7373 4600,7389 4600,7406C4600,7425 4571,7450 4548,7450C4528,7450 4460,7486 4460,7497C4460,7502 4682,7491 4686,7487ZM5079,7478C5079,7471 5071,7447 5061,7425L5043,7385L5037,7430C5034,7454 5034,7478 5036,7482C5044,7495 5080,7491 5079,7478ZM3012,7426C3087,7393 3170,7325 3170,7297C3170,7285 3178,7243 3189,7205C3199,7166 3213,7099 3220,7055C3226,7011 3236,6953 3241,6925C3245,6898 3254,6837 3260,6790C3274,6679 3300,6540 3312,6518C3336,6470 3245,6530 3179,6604C3147,6641 3146,6643 3139,6778C3124,7041 3111,7154 3087,7216C3066,7269 3061,7275 3033,7278C3005,7281 3001,7286 2990,7330C2982,7362 2970,7384 2954,7395C2928,7412 2921,7450 2945,7450C2953,7450 2983,7439 3012,7426ZM4206,7339C4218,7320 4177,7259 4141,7244L4108,7230L4115,7161L4122,7092L4093,7088C4065,7085 4065,7084 4068,7023C4071,6956 4063,6944 4024,6954C4005,6959 4000,6965 4005,6979C4008,6989 4001,7008 3989,7024C3970,7048 3963,7051 3930,7045C3897,7039 3892,7041 3886,7062C3883,7075 3880,7096 3880,7109C3880,7129 3876,7132 3853,7127C3832,7123 3820,7129 3795,7156C3775,7176 3753,7190 3739,7190C3706,7190 3670,7163 3670,7140C3670,7129 3658,7115 3643,7108C3614,7094 3591,7028 3590,6960C3590,6922 3567,6880 3546,6880C3536,6880 3531,6844 3527,6740L3520,6600L3559,6518C3683,6248 3712,6166 3701,6120C3685,6053 3662,6010 3641,6010C3622,6010 3618,6018 3581,6145C3576,6162 3545,6258 3512,6360C3434,6599 3407,6729 3412,6834C3416,6930 3441,6992 3527,7117C3578,7192 3589,7202 3639,7220C3714,7249 3894,7297 3971,7310C4006,7316 4060,7326 4090,7334C4159,7351 4197,7353 4206,7339ZM6035,6879C6039,6835 6040,6796 6037,6794C6030,6786 5959,6811 5939,6827C5931,6834 5920,6840 5916,6840C5912,6840 5896,6850 5880,6862C5854,6880 5847,6882 5824,6871C5809,6865 5789,6848 5778,6835C5767,6821 5750,6810 5740,6810C5731,6810 5716,6801 5709,6789C5695,6769 5694,6769 5652,6785C5629,6795 5605,6811 5599,6821C5592,6836 5578,6840 5541,6840C5514,6840 5473,6849 5449,6860C5422,6872 5383,6880 5348,6880C5317,6880 5288,6885 5285,6890C5282,6896 5253,6900 5222,6901L5165,6901L5205,6917C5280,6945 5640,6945 5895,6917C5906,6916 5915,6921 5915,6930C5915,6945 5950,6957 6001,6959C6027,6960 6028,6959 6035,6879ZM2085,6811L2145,6804L2075,6796C1954,6782 1797,6751 1790,6740C1786,6734 1766,6727 1744,6723C1700,6716 1665,6701 1674,6693C1677,6689 1673,6678 1664,6669C1648,6652 1649,6650 1673,6641C1688,6635 1722,6628 1750,6624C1778,6620 1803,6614 1805,6609C1814,6595 1768,6530 1739,6514C1704,6496 1690,6502 1690,6535C1690,6550 1683,6561 1670,6565C1658,6569 1650,6580 1650,6594C1650,6625 1613,6670 1589,6670C1578,6670 1554,6686 1536,6705C1499,6744 1477,6749 1458,6722C1451,6712 1437,6701 1428,6697C1417,6693 1410,6680 1410,6666C1410,6641 1398,6628 1370,6624C1362,6623 1346,6619 1334,6615C1316,6609 1312,6613 1306,6642C1302,6663 1281,6694 1248,6727C1219,6756 1200,6781 1205,6782C1211,6783 1253,6785 1300,6786C1510,6790 1708,6800 1745,6809C1792,6819 1999,6821 2085,6811ZM5690,6736C5690,6729 5684,6707 5676,6689C5669,6670 5659,6634 5656,6608C5652,6581 5644,6560 5639,6560C5634,6560 5622,6576 5613,6595C5602,6618 5588,6631 5569,6635C5548,6640 5540,6649 5535,6671C5527,6708 5529,6711 5593,6732C5658,6753 5690,6754 5690,6736ZM5181,6605C5184,6583 5194,6551 5203,6533C5226,6490 5224,6480 5195,6480C5166,6480 5163,6468 5187,6449C5213,6426 5308,6275 5324,6228C5341,6176 5332,6160 5285,6160C5257,6160 5252,6164 5246,6191C5243,6208 5240,6241 5240,6265C5240,6310 5230,6322 5169,6353C5148,6364 5126,6386 5117,6406C5107,6425 5093,6440 5083,6440C5073,6440 5059,6444 5051,6449C5040,6456 5044,6461 5066,6473L5095,6488L5068,6499C5049,6506 5042,6514 5046,6525C5051,6537 5041,6540 4987,6540C4943,6540 4919,6545 4911,6554C4897,6571 4784,6582 4633,6581C4576,6580 4530,6582 4530,6584C4530,6587 4556,6599 4588,6611C4638,6631 4670,6634 4865,6640C4986,6644 5105,6646 5130,6646C5175,6645 5175,6645 5181,6605ZM2384,6607C2397,6597 2400,6587 2394,6566C2389,6543 2383,6539 2364,6543C2333,6549 2318,6529 2311,6477C2306,6440 2302,6435 2277,6432C2242,6428 2228,6396 2226,6320C2225,6276 2221,6265 2208,6262C2192,6259 2190,6269 2190,6364L2190,6469L2163,6472C2139,6475 2134,6481 2128,6519C2124,6543 2114,6570 2105,6580C2080,6608 2087,6612 2153,6606C2201,6601 2316,6608 2361,6619C2364,6619 2374,6614 2384,6607ZM2805,6591C2860,6587 2927,6574 2955,6564C3015,6541 3027,6513 2981,6504C2964,6500 2939,6487 2924,6474C2910,6460 2895,6452 2890,6455C2872,6466 2842,6440 2835,6408C2822,6342 2821,6340 2792,6346C2770,6350 2762,6346 2747,6321C2725,6284 2715,6282 2699,6313C2692,6325 2682,6338 2675,6342C2666,6348 2664,6369 2667,6413C2674,6492 2660,6525 2624,6516C2604,6511 2598,6515 2585,6546C2574,6574 2566,6580 2551,6575C2530,6569 2515,6584 2526,6601C2533,6613 2562,6612 2805,6591ZM3186,6479C3279,6430 3293,6419 3332,6362C3383,6288 3485,5986 3501,5865C3505,5827 3521,5725 3536,5640C3573,5424 3573,5418 3557,5396C3543,5377 3542,5377 3504,5400C3401,5463 3368,5505 3331,5621C3307,5698 3322,5822 3368,5908C3395,5960 3398,6039 3373,6080C3360,6102 3347,6110 3321,6112C3294,6114 3286,6119 3289,6130C3300,6166 3301,6263 3291,6273C3285,6279 3263,6284 3243,6285C3208,6285 3205,6287 3200,6320C3192,6370 3181,6383 3154,6377C3134,6374 3131,6377 3128,6404C3126,6424 3117,6438 3102,6446C3083,6456 3050,6500 3050,6516C3050,6532 3120,6513 3186,6479ZM4721,6335C4725,6319 4745,6273 4767,6234C4796,6182 4804,6160 4796,6148C4789,6136 4795,6120 4823,6083C4843,6056 4876,6005 4896,5969C4932,5907 4933,5902 4934,5800C4935,5676 4911,5574 4872,5535C4821,5484 4818,5505 4861,5614C4881,5665 4894,5720 4897,5767L4903,5841L4872,5852C4840,5864 4830,5884 4830,5936C4830,5970 4817,5985 4785,5992C4768,5995 4765,6002 4768,6047C4772,6106 4753,6145 4715,6154C4699,6158 4690,6170 4683,6197C4676,6227 4669,6236 4648,6240C4633,6243 4612,6257 4600,6273C4574,6306 4531,6309 4504,6279C4494,6267 4455,6238 4418,6215C4352,6172 4352,6171 4345,6118C4342,6089 4340,6054 4342,6040C4345,6018 4341,6014 4305,6010C4257,6003 4207,6023 4189,6057C4151,6129 4040,6072 4040,5980C4040,5954 4037,5950 4012,5950C3979,5950 3952,5925 3941,5884C3936,5862 3926,5854 3901,5849C3847,5838 3835,5818 3837,5745C3838,5690 3836,5680 3819,5675C3809,5671 3800,5664 3800,5659C3800,5654 3788,5650 3774,5650L3748,5650L3755,5568C3759,5522 3767,5477 3772,5467C3788,5436 3774,5418 3738,5422C3705,5425 3705,5426 3689,5507C3665,5624 3655,5815 3670,5869C3676,5892 3698,5935 3718,5963C3786,6060 3862,6151 3878,6157C3888,6160 3943,6185 4001,6211C4059,6238 4117,6260 4129,6260C4153,6260 4400,6309 4411,6316C4415,6318 4465,6325 4522,6331C4594,6338 4627,6346 4633,6356C4639,6366 4654,6370 4678,6368C4709,6365 4715,6361 4721,6335ZM4407,5312C4401,5257 4394,5238 4353,5178C4326,5139 4289,5095 4270,5079C4236,5050 4200,5041 4200,5060C4200,5081 4283,5236 4319,5282C4339,5307 4363,5342 4372,5360C4399,5409 4414,5389 4407,5312ZM3871,5023C3975,4911 4000,4864 4000,4779C4000,4729 3966,4665 3940,4665C3920,4665 3870,4800 3860,4880C3855,4916 3845,4965 3836,4990C3808,5071 3817,5080 3871,5023ZM4370,4880C4422,4876 4496,4865 4533,4856C4571,4847 4619,4840 4641,4840C4663,4840 4713,4832 4753,4823C4852,4799 5063,4798 5105,4821C5137,4839 5287,4853 5296,4839C5306,4823 5206,4769 5134,4750C5111,4745 5075,4723 5052,4703C4959,4617 4909,4581 4883,4580C4876,4580 4843,4560 4809,4535C4775,4510 4742,4490 4736,4490C4729,4490 4703,4470 4677,4446C4649,4418 4614,4396 4588,4389C4537,4375 4485,4329 4463,4280C4439,4228 4420,4210 4390,4210C4375,4210 4354,4200 4343,4188C4302,4144 4250,4045 4250,4013C4250,3983 4247,3980 4221,3980C4167,3980 4120,3891 4120,3786C4120,3721 4180,3537 4236,3432C4266,3375 4290,3323 4290,3316C4290,3290 4209,3130 4196,3130C4179,3130 4173,3155 4160,3267C4155,3315 4143,3378 4134,3405C4125,3433 4114,3469 4110,3485C4106,3502 4088,3562 4072,3620C4027,3778 4002,3969 3980,4323C3968,4519 3968,4518 4068,4629C4092,4657 4110,4687 4110,4701C4110,4732 4158,4814 4204,4864C4231,4893 4244,4900 4257,4894C4267,4890 4318,4883 4370,4880ZM2639,4141C2647,4136 2632,4130 2594,4126C2561,4122 2504,4110 2465,4100C2340,4067 2315,4066 2281,4091C2254,4111 2247,4112 2212,4102C2190,4095 2164,4090 2152,4090C2141,4090 2130,4083 2126,4075C2123,4067 2100,4048 2075,4032C2018,3997 1954,3921 1940,3872C1934,3852 1926,3802 1923,3763C1920,3723 1914,3690 1910,3690C1900,3690 1882,3730 1877,3765C1869,3810 1889,3981 1906,4014C1914,4030 1920,4051 1920,4061C1920,4093 1948,4110 2003,4110C2032,4111 2089,4119 2130,4130C2191,4145 2244,4149 2415,4149C2531,4149 2631,4146 2639,4141ZM4750,4020C4750,3960 4728,3944 4696,3979C4676,4001 4686,4031 4717,4049C4741,4062 4750,4054 4750,4020ZM3504,3840C3718,3756 3790,3716 3837,3656C3860,3626 3882,3589 3885,3574C3909,3458 3930,3375 3952,3297C3987,3172 4014,2979 4035,2695C4044,2574 4055,2459 4061,2440C4073,2393 4072,2340 4059,2340C4045,2340 3963,2387 3919,2421C3900,2436 3872,2454 3857,2461C3824,2476 3790,2531 3790,2570C3790,2595 3817,2678 3851,2755C3855,2766 3869,2809 3880,2850C3892,2891 3908,2945 3915,2970C3935,3034 3943,3113 3936,3154L3929,3189L3863,3183C3800,3177 3797,3178 3805,3196C3820,3231 3822,3291 3810,3337L3797,3382L3758,3376C3716,3369 3709,3381 3735,3416C3750,3436 3754,3477 3744,3504C3740,3516 3724,3520 3689,3520C3641,3520 3641,3520 3630,3559C3616,3610 3595,3628 3568,3611C3546,3597 3547,3597 3531,3628C3524,3642 3510,3650 3494,3650C3481,3650 3467,3657 3464,3665C3455,3689 3426,3683 3396,3651C3380,3634 3356,3620 3341,3618C3316,3615 3315,3612 3318,3566L3321,3518L3288,3524C3258,3529 3252,3527 3237,3501C3228,3485 3220,3459 3220,3442C3220,3406 3176,3369 3166,3396C3163,3405 3160,3438 3160,3470C3160,3502 3156,3540 3150,3555C3142,3576 3136,3579 3114,3574L3088,3567L3095,3622C3103,3685 3091,3703 3059,3674C3042,3658 3037,3658 3030,3670C3024,3678 3020,3697 3020,3711C3020,3743 3005,3756 2963,3758C2938,3760 2927,3754 2915,3736C2906,3722 2887,3710 2872,3708C2849,3705 2845,3700 2842,3667C2839,3633 2836,3629 2813,3632C2791,3635 2785,3628 2766,3580C2744,3527 2742,3525 2710,3528C2691,3529 2674,3532 2673,3534C2671,3536 2678,3562 2690,3591C2716,3661 2716,3680 2689,3680C2666,3680 2666,3696 2691,3757C2704,3788 2703,3791 2670,3825C2646,3850 2639,3863 2647,3871C2665,3889 2872,3899 3134,3893L3383,3888L3504,3840ZM4735,3823C4727,3743 4722,3734 4615,3610C4505,3483 4417,3394 4413,3407C4408,3422 4455,3500 4527,3595C4629,3731 4661,3782 4655,3799C4652,3810 4663,3830 4684,3853C4734,3908 4743,3902 4735,3823ZM5059,3232C5114,3211 5120,3196 5082,3176C5065,3167 5047,3145 5036,3118C4996,3021 4989,3009 4974,3003C4946,2993 4937,3015 4955,3049C4972,3083 4968,3102 4945,3093C4927,3087 4924,3120 4941,3137C4948,3144 4950,3156 4947,3164C4931,3205 4866,3165 4795,3071C4771,3040 4747,3020 4730,3017C4708,3012 4701,3003 4690,2965C4674,2906 4647,2873 4602,2854C4535,2826 4508,2784 4498,2690C4495,2669 4489,2664 4447,2658C4355,2645 4333,2614 4343,2509C4348,2452 4347,2450 4324,2450C4287,2450 4248,2493 4256,2524C4259,2538 4256,2582 4249,2622C4243,2662 4237,2756 4238,2830C4239,2904 4239,2982 4240,3002C4240,3031 4248,3049 4274,3077C4292,3098 4317,3134 4328,3157C4350,3200 4393,3240 4416,3240C4425,3240 4430,3229 4430,3210C4430,3174 4450,3171 4498,3200C4537,3224 4568,3225 4598,3204C4627,3184 4706,3194 4737,3223C4758,3242 4761,3242 4824,3226C4912,3204 4941,3205 4947,3230C4954,3255 4997,3256 5059,3232ZM2705,3130C2718,3104 2740,3069 2754,3052C2797,3002 2782,2993 2730,3036C2696,3065 2636,3175 2646,3191C2655,3206 2678,3182 2705,3130ZM2395,3074L2425,3061L2390,3061C2371,3061 2339,3070 2320,3080L2285,3100L2325,3094C2347,3090 2379,3081 2395,3074ZM6450,2860C6450,2855 6433,2850 6413,2851C6379,2852 6378,2853 6400,2860C6436,2871 6450,2871 6450,2860ZM5585,2634C5573,2565 5501,2461 5422,2396C5342,2330 5302,2305 5292,2314C5289,2318 5309,2344 5337,2373C5397,2435 5465,2524 5510,2600C5562,2687 5598,2703 5585,2634ZM4986,2496C5009,2424 5002,2410 4946,2410C4921,2410 4899,2414 4895,2420C4884,2437 4940,2550 4960,2550C4965,2550 4977,2526 4986,2496ZM4987,2108C4964,2056 4837,1917 4769,1872C4701,1826 4676,1824 4729,1867C4766,1898 4914,2067 4950,2120C4963,2139 4979,2158 4985,2162C5001,2174 5002,2145 4987,2108ZM5270,2097C5270,2084 5157,2017 5093,1991C5039,1969 5035,1984 5084,2025C5165,2091 5270,2132 5270,2097ZM4418,1953C4450,1921 4490,1877 4507,1856C4560,1790 4562,1687 4514,1603C4474,1533 4463,1543 4426,1694C4410,1754 4385,1842 4369,1889C4352,1936 4337,1983 4333,1993C4322,2028 4361,2009 4418,1953ZM5400,1970C5423,1947 5419,1930 5391,1930C5367,1930 5348,1953 5356,1974C5364,1995 5376,1994 5400,1970Z" style="fill:rgb(99,130,110);fill-rule:nonzero;"/>
    </g>
</svg>
